#!OML:ASF X:\für Bonn\!DataBase\2005_08_10_Bjorn_Final\c3d\bjorn.ASF
:FULLY-SPECIFIED
:DEGREES
62
root -16.7347 17.5953 21.1696 179.343 45.3649 -532.65
lowerback 4.32198 -0.852824 -0.810093
upperback 17.1171 0.978322 0.627238
thorax 16.6699 1.13664 1.50894
lowerneck 8.0454 3.039 -1.42475
upperneck -13.9943 3.93818 -1.3077
head -5.54637 2.17665 -0.464386
rclavicle 1.07344e-014 -1.70955e-014
rhumerus -15.1715 5.78794 -92.3851
rradius 55.297
rwrist -2.09979
rhand -19.4028 18.1784
rfingers 7.12502
rthumb 6.91631 -11.6886
lclavicle 1.07344e-014 -1.70955e-014
lhumerus -16.7133 1.63645 81.7008
lradius 34.9037
lwrist -21.0057
lhand -39.1238 -17.8187
lfingers 7.12502
lthumb -12.123 11.8101
rfemur -5.23055 -3.86097 25.3008
rtibia 49.9257
rfoot -34.7541 9.4061
rtoes -14.2525
lfemur -31.6268 10.2223 0.913673
ltibia 33.9454
lfoot 9.29616 10.2701
ltoes -25.7204
63
root -16.7077 17.5922 21.102 179.65 45.1754 -532.496
lowerback 4.46533 -0.849156 -0.825722
upperback 17.2095 1.01906 0.628986
thorax 16.7001 1.16579 1.52686
lowerneck 8.1919 2.98416 -1.43105
upperneck -14.2665 3.87178 -1.27
head -5.65742 2.14688 -0.453415
rclavicle -2.8625e-014 4.49253e-014
rhumerus -15.0506 5.57542 -92.2681
rradius 55.3758
rwrist -2.2334
rhand -19.4273 18.1007
rfingers 7.12502
rthumb 6.89269 -11.7671
lclavicle -2.8625e-014 4.49253e-014
lhumerus -16.4104 1.26658 81.7077
lradius 35.5773
lwrist -20.637
lhand -39.3759 -17.6126
lfingers 7.12502
lthumb -12.3661 12.0016
rfemur -5.19079 -3.91884 25.3178
rtibia 49.9031
rfoot -34.8388 9.42002
rtoes -14.7153
lfemur -31.856 10.1752 0.929798
ltibia 34.2014
lfoot 8.97845 9.57191
ltoes -25.7992
64
root -16.6822 17.5909 21.0324 179.911 44.9998 -532.394
lowerback 4.60327 -0.851805 -0.867192
upperback 17.3243 1.06061 0.611519
thorax 16.7646 1.19518 1.53903
lowerneck 8.29492 2.93274 -1.42803
upperneck -14.5535 3.81728 -1.21319
head -5.76604 2.12194 -0.438136
rclavicle -8.0309e-014 3.61788e-014
rhumerus -14.8999 5.43388 -92.165
rradius 55.4349
rwrist -2.38181
rhand -19.5394 18.0727
rfingers 7.12502
rthumb 6.78444 -11.7986
lclavicle -8.0309e-014 3.61788e-014
lhumerus -16.0723 0.958183 81.7066
lradius 36.2322
lwrist -20.3831
lhand -39.6387 -17.384
lfingers 7.12502
lthumb -12.6195 12.2148
rfemur -5.13333 -3.98906 25.2782
rtibia 49.8555
rfoot -34.9076 9.42971
rtoes -15.3129
lfemur -32.0753 10.1369 0.895161
ltibia 34.4928
lfoot 8.62281 8.92043
ltoes -25.7664
65
root -16.6567 17.5922 20.9611 180.193 44.8366 -532.291
lowerback 4.73112 -0.849034 -0.915381
upperback 17.4261 1.10346 0.616312
thorax 16.8181 1.22046 1.57953
lowerneck 8.38835 2.88329 -1.45243
upperneck -14.7986 3.75751 -1.17734
head -5.86025 2.09658 -0.42365
rclavicle -6.08281e-014 4.17448e-014
rhumerus -14.777 5.26807 -92.0389
rradius 55.495
rwrist -2.46446
rhand -19.5678 18.0827
rfingers 7.12502
rthumb 6.75702 -11.7895
lclavicle -6.08281e-014 4.17448e-014
lhumerus -15.7641 0.691151 81.7307
lradius 36.878
lwrist -20.121
lhand -39.9062 -17.2058
lfingers 7.12502
lthumb -12.8773 12.3769
rfemur -5.07765 -4.02702 25.2451
rtibia 49.7791
rfoot -34.9672 9.42198
rtoes -15.864
lfemur -32.3054 10.0738 0.872242
ltibia 34.816
lfoot 8.21512 8.35715
ltoes -25.527
66
root -16.6328 17.594 20.8896 180.449 44.6753 -532.215
lowerback 4.88295 -0.837888 -0.952432
upperback 17.5302 1.1624 0.597869
thorax 16.8593 1.25866 1.58857
lowerneck 8.48636 2.82222 -1.43378
upperneck -15.0668 3.69274 -1.11921
head -5.96218 2.06534 -0.409059
rclavicle 7.7526e-014 -3.37934e-014
rhumerus -14.6352 5.09516 -91.9513
rradius 55.5248
rwrist -2.5327
rhand -19.6376 18.1318
rfingers 7.12502
rthumb 6.68972 -11.7425
lclavicle 7.7526e-014 -3.37934e-014
lhumerus -15.4596 0.38846 81.7386
lradius 37.5516
lwrist -19.8693
lhand -40.1206 -16.9748
lfingers 7.12502
lthumb -13.084 12.5948
rfemur -5.00038 -4.04908 25.1894
rtibia 49.6786
rfoot -35.0129 9.42629
rtoes -16.3499
lfemur -32.5446 10.0295 0.819306
ltibia 35.1709
lfoot 7.81787 7.82246
ltoes -25.1285
67
root -16.6081 17.5984 20.8157 180.709 44.5254 -532.14
lowerback 5.01579 -0.8232 -0.99158
upperback 17.6377 1.22629 0.585444
thorax 16.9177 1.29807 1.60675
lowerneck 8.54651 2.75087 -1.42808
upperneck -15.3082 3.61446 -1.05337
head -6.04967 2.02749 -0.38771
rclavicle 7.95139e-016 8.74653e-015
rhumerus -14.4854 4.82477 -91.8755
rradius 55.5466
rwrist -2.49643
rhand -19.6055 18.2199
rfingers 7.12502
rthumb 6.7207 -11.6534
lclavicle 7.95139e-016 8.74653e-015
lhumerus -15.1563 0.0946852 81.7561
lradius 38.2193
lwrist -19.6124
lhand -40.3569 -16.7542
lfingers 7.12502
lthumb -13.3118 12.8007
rfemur -4.91412 -4.07871 25.1244
rtibia 49.5512
rfoot -35.042 9.3966
rtoes -17.0152
lfemur -32.7837 9.97848 0.766243
ltibia 35.5562
lfoot 7.39631 7.36974
ltoes -24.5909
